<svg id="Capa_1" enable-background="new 0 0 512 512" height="512" viewBox="0 0 512 512" width="512" xmlns="http://www.w3.org/2000/svg" xmlns:xlink="http://www.w3.org/1999/xlink"><linearGradient id="SVGID_1_" gradientUnits="userSpaceOnUse" x1="256" x2="256" y1="512" y2="0"><stop offset="0" stop-color="#5558ff"/><stop offset="1" stop-color="#00c0ff"/></linearGradient><g><g><g><path d="m339.966 72.533c-1.206-7.232-7.464-12.533-14.796-12.533h-138.34c-7.332 0-13.59 5.301-14.796 12.533l-10.005 60c-.725 4.35.5 8.798 3.351 12.163 2.85 3.365 7.036 5.305 11.445 5.305h158.35c4.409 0 8.596-1.94 11.445-5.305 2.851-3.365 4.075-7.813 3.351-12.163zm-145.433 47.467 5.003-30h112.928l5.003 30zm241.467 60h-17.293l-23.733-142.398c-3.632-21.788-22.3-37.602-44.388-37.602h-189.172c-22.088 0-40.756 15.814-44.388 37.602l-23.733 142.398h-17.293c-8.284 0-15 6.716-15 15s6.716 15 15 15h16.415l25.958 261.478c2.31 23.102 21.56 40.522 44.776 40.522h185.701c23.217 0 42.467-17.421 44.777-40.533l25.958-261.467h16.415c8.284 0 15-6.716 15-15s-6.716-15-15-15zm-289.382-137.466c1.211-7.263 7.434-12.534 14.796-12.534h189.172c7.362 0 13.585 5.271 14.796 12.534l22.911 137.466h-264.586zm217.157 425.959c-.77 7.7-7.186 13.507-14.925 13.507h-185.701c-7.739 0-14.155-5.807-14.924-13.497l-25.662-258.503h58.437v15c0 8.284 6.716 15 15 15s15-6.716 15-15v-15h90v15c0 8.284 6.716 15 15 15s15-6.716 15-15v-15h58.437zm-47.775-46.493h-120c-8.284 0-15 6.716-15 15s6.716 15 15 15h120c8.284 0 15-6.716 15-15s-6.716-15-15-15z" fill="url(#SVGID_1_)"/></g></g></g></svg>