<svg id="Capa_1" enable-background="new 0 0 512 512" height="512" viewBox="0 0 512 512" width="512" xmlns="http://www.w3.org/2000/svg" xmlns:xlink="http://www.w3.org/1999/xlink"><linearGradient id="SVGID_1_" gradientUnits="userSpaceOnUse" x1="256" x2="256" y1="512" y2="0"><stop offset="0" stop-color="#a93aff"/><stop offset="1" stop-color="#ff81ff"/></linearGradient><g><g><g><path d="m406 422c-8.284 0-15 6.716-15 15v30c0 8.271-6.729 15-15 15h-240c-8.271 0-15-6.729-15-15v-30c0-8.284-6.716-15-15-15s-15 6.716-15 15v30c0 24.813 20.187 45 45 45h240c24.813 0 45-20.187 45-45v-30c0-8.284-6.716-15-15-15zm10.604-327.609-89.995-89.995c-2.748-2.749-6.572-4.396-10.609-4.396h-180c-24.813 0-45 20.187-45 45v301c0 24.813 20.187 45 45 45h74.186l33.094 52.95c2.741 4.386 7.548 7.05 12.72 7.05s9.979-2.664 12.72-7.05l33.094-52.95h74.186c24.813 0 45-20.187 45-45v-241c0-4.069-1.697-7.913-4.396-10.609zm-85.604-43.178 38.787 38.787h-23.787c-8.271 0-15-6.729-15-15zm-75 356.485-47.936-76.698h17.936c8.284 0 15-6.716 15-15v-105h30v105c0 8.284 6.716 15 15 15h17.937zm135-61.698c0 8.271-6.729 15-15 15h-55.436l23.156-37.05c2.891-4.624 3.043-10.453.4-15.222-2.644-4.77-7.667-7.729-13.12-7.729h-30v-104.999c0-8.284-6.716-15-15-15h-60c-8.284 0-15 6.716-15 15v105h-30c-5.453 0-10.476 2.959-13.12 7.729-2.644 4.769-2.49 10.598.399 15.222l23.157 37.049h-55.436c-8.271 0-15-6.729-15-15v-301c0-8.271 6.729-15 15-15h165v45c0 24.813 20.187 45 45 45h45z" fill="url(#SVGID_1_)"/></g></g></g></svg>