<svg id="Capa_1" enable-background="new 0 0 512 512" height="512" viewBox="0 0 512 512" width="512" xmlns="http://www.w3.org/2000/svg" xmlns:xlink="http://www.w3.org/1999/xlink"><linearGradient id="SVGID_1_" gradientUnits="userSpaceOnUse" x1="256" x2="256" y1="512" y2="0"><stop offset="0" stop-color="#fd5900"/><stop offset="1" stop-color="#ffde00"/></linearGradient><g><g><g><path d="m436 181h-45v-76c0-3.897-1.58-7.794-4.394-10.607l-89.989-89.989c-2.767-2.786-6.669-4.404-10.616-4.404h-120.001c-24.813 0-45 20.187-45 45v136h-45c-24.813 0-45 20.187-45 45v90c0 24.813 20.187 45 45 45h45v136c0 8.284 6.716 15 15 15s15-6.716 15-15v-136h30v76c0 8.284 6.716 15 15 15s15-6.716 15-15v-76h30v136c0 8.284 6.716 15 15 15s15-6.716 15-15v-136h30v76c0 8.284 6.716 15 15 15s15-6.716 15-15v-76h30v136c0 8.284 6.716 15 15 15s15-6.716 15-15v-136h45c24.813 0 45-20.187 45-45v-90c0-24.813-20.187-45-45-45zm-135-129.787 38.787 38.787h-23.787c-8.271 0-15-6.729-15-15zm-150-6.213c0-8.271 6.729-15 15-15h105v45c0 24.813 20.187 45 45 45h45v61h-210zm300 271c0 8.271-6.729 15-15 15h-360c-8.271 0-15-6.729-15-15v-90c0-8.271 6.729-15 15-15h360c8.271 0 15 6.729 15 15zm-45-75h-60c-8.284 0-15 6.716-15 15s6.716 15 15 15h60c8.284 0 15-6.716 15-15s-6.716-15-15-15z" fill="url(#SVGID_1_)"/></g></g></g></svg>