<svg id="Capa_1" enable-background="new 0 0 512 512" height="512" viewBox="0 0 512 512" width="512" xmlns="http://www.w3.org/2000/svg" xmlns:xlink="http://www.w3.org/1999/xlink"><linearGradient id="SVGID_1_" gradientUnits="userSpaceOnUse" x1="256" x2="256" y1="512" y2="0"><stop offset="0" stop-color="#5558ff"/><stop offset="1" stop-color="#00c0ff"/></linearGradient><g><g><g><path d="m406 422c-8.284 0-15 6.716-15 15v30c0 8.271-6.729 15-15 15h-240c-8.271 0-15-6.729-15-15v-30c0-8.284-6.716-15-15-15s-15 6.716-15 15v30c0 24.813 20.187 45 45 45h240c24.813 0 45-20.187 45-45v-30c0-8.284-6.716-15-15-15zm10.604-327.609-89.995-89.995c-2.785-2.787-6.617-4.396-10.609-4.396h-180c-24.813 0-45 20.187-45 45v302c0 24.813 20.187 45 45 45h75v45c0 8.284 6.716 15 15 15h60c8.284 0 15-6.716 15-15v-45h75c24.813 0 45-20.187 45-45v-242c0-4.037-1.668-7.883-4.396-10.609zm-85.604-43.178 38.787 38.787h-23.787c-8.271 0-15-6.729-15-15zm-45 250.787c-8.284 0-15 6.716-15 15v105h-30v-105c0-8.284-6.716-15-15-15h-17.937l47.937-76.698 47.937 76.698zm105 45c0 8.271-6.729 15-15 15h-75v-30h30c5.453 0 10.477-2.959 13.12-7.729 2.643-4.769 2.49-10.598-.4-15.222l-75-120c-2.741-4.386-7.548-7.05-12.72-7.05s-9.979 2.664-12.72 7.05l-75 120c-2.891 4.624-3.043 10.453-.4 15.222 2.644 4.77 7.667 7.729 13.12 7.729h30v30h-75c-8.271 0-15-6.729-15-15v-302c0-8.271 6.729-15 15-15h165v45c0 24.813 20.187 45 45 45h45z" fill="url(#SVGID_1_)"/></g></g></g></svg>